<svg width="57" height="58" viewBox="0 0 57 58" fill="none" xmlns="http://www.w3.org/2000/svg">
<path d="M28.5 0.5C25.65 0.5 24.8731 4.44849 22.1197 5.18817C19.3662 5.92544 16.7191 2.89231 14.2499 4.31979C11.7809 5.74481 13.0847 9.55225 11.0684 11.5684C9.05206 13.5847 5.24462 12.2809 3.81979 14.7499C2.39231 17.2189 5.42544 19.866 4.68817 22.6197C3.94843 25.3733 0 26.1501 0 29C0 31.8499 3.94849 32.6269 4.68817 35.3803C5.42544 38.1338 2.39231 40.7809 3.81979 43.2501C5.24481 45.7191 9.05225 44.4153 11.0684 46.4316C13.0847 48.4479 11.7809 52.2554 14.2499 53.6802C16.7189 55.1077 19.366 52.0746 22.1197 52.8118C24.8733 53.5516 25.6501 57.5 28.5 57.5C31.3499 57.5 32.1269 53.5515 34.8803 52.8118C37.6338 52.0746 40.2809 55.1077 42.7501 53.6802C45.2191 52.2552 43.9153 48.4478 45.9316 46.4316C47.9479 44.4153 51.7554 45.7191 53.1802 43.2501C54.6077 40.7811 51.5746 38.134 52.3118 35.3803C53.0516 32.6267 57 31.8499 57 29C57 26.1501 53.0515 25.3731 52.3118 22.6197C51.5746 19.8662 54.6077 17.2191 53.1802 14.7499C51.7552 12.2809 47.9478 13.5847 45.9316 11.5684C43.9153 9.55206 45.2191 5.74462 42.7501 4.31979C40.2811 2.89231 37.634 5.92544 34.8803 5.18817C32.1267 4.44843 31.3499 0.5 28.5 0.5ZM28.5 10.0001C33.5395 10.0001 38.3712 12.0016 41.9363 15.5641C45.4988 19.1291 47.5003 23.9609 47.5003 29.0004C47.5003 34.0399 45.4988 38.8716 41.9363 42.4367C38.3713 45.9992 33.5395 48.0007 28.5 48.0007C23.4605 48.0007 18.6288 45.9992 15.0637 42.4367C11.5012 38.8717 9.4997 34.0399 9.4997 29.0004C9.4997 23.9609 11.5012 19.1292 15.0637 15.5641C18.6287 12.0016 23.4605 10.0001 28.5 10.0001Z" fill="#0439A1"/>
<path d="M28.5 11.5834C19.7542 11.5834 11.0831 20.2544 11.0831 29.0002C11.0831 37.746 19.7542 46.417 28.5 46.417C37.2457 46.417 45.9168 37.746 45.9168 29.0002C45.9168 20.2544 37.2457 11.5834 28.5 11.5834ZM36.4762 21.0759C37.7701 21.113 38.4752 22.6023 37.6835 23.6265L28.1834 36.2933C27.6045 37.0627 26.4788 37.1444 25.7985 36.464L19.4651 30.1306C17.9115 28.6388 20.2123 26.338 21.7041 27.8916L26.746 32.9336L35.1505 21.7266C35.4572 21.3036 35.9545 21.0611 36.4765 21.076L36.4762 21.0759Z" fill="#0439A1"/>
</svg>
