<svg width="29" height="24" viewBox="0 0 29 24" fill="none" xmlns="http://www.w3.org/2000/svg">
<path d="M12.3126 6.7293C12.3126 6.20442 11.9967 5.7318 11.5131 5.53131C11.0283 5.33083 10.4706 5.4414 10.1001 5.81197C9.72949 6.18254 9.61891 6.74023 9.8194 7.22501C10.0199 7.70859 10.4925 8.02447 11.0162 8.02447C11.7318 8.02447 12.3114 7.4437 12.3126 6.72928L12.3126 6.7293Z" fill="#FAFAFA"/>
<path d="M17.4969 5.43264C16.972 5.43264 16.4994 5.74853 16.2989 6.2321C16.0984 6.71688 16.209 7.27457 16.5795 7.64514C16.9501 8.01571 17.5078 8.12629 17.9926 7.92581C18.4762 7.72533 18.7921 7.25269 18.7921 6.72902C18.7921 6.01339 18.2113 5.43383 17.4969 5.43262L17.4969 5.43264Z" fill="#FAFAFA"/>
<path d="M17.0387 15.342C15.9986 16.382 12.5152 16.382 11.4751 15.342H11.4739C11.22 15.0941 10.8142 15.0978 10.5639 15.3481C10.3136 15.5984 10.3099 16.0042 10.5578 16.2581C11.3354 17.0357 12.7958 17.4245 14.2564 17.4245C15.7169 17.4245 17.1772 17.0357 17.9549 16.2581C18.2028 16.0042 18.1991 15.5984 17.9488 15.3481C17.6986 15.0978 17.2927 15.0941 17.0388 15.342H17.0387Z" fill="#FAFAFA"/>
<path fill-rule="evenodd" clip-rule="evenodd" d="M20.7274 9.69259C20.6669 9.78367 20.6025 9.87269 20.5341 9.95938C20.5292 9.96555 20.5244 9.9717 20.5195 9.97785C20.5229 9.98062 20.5261 9.98371 20.5295 9.98648C20.6428 10.0778 20.7517 10.1716 20.8562 10.2675C21.9474 11.27 22.556 12.5175 22.556 13.8052C22.556 16.9756 18.9417 19.5562 14.5 19.5562C10.0572 19.5562 6.44399 16.9766 6.44399 13.8052C6.44399 12.3906 7.17857 11.0244 8.48053 9.97837C7.60988 8.89453 7.36112 7.43632 7.82388 6.125C8.28664 4.81368 9.39561 3.83452 10.7551 3.53687C12.0438 3.25472 13.3837 3.62372 14.345 4.5125C14.3978 4.56136 14.4495 4.61179 14.5 4.66377C14.5506 4.612 14.6024 4.56178 14.6553 4.51314C15.6173 3.62857 16.955 3.26444 18.2405 3.54656C19.5967 3.84529 20.7026 4.82229 21.1665 6.13038C21.5898 7.32692 21.422 8.64603 20.7274 9.69259ZM14.5009 4.05786C15.5562 3.1693 16.9726 2.81394 18.3357 3.1131C19.8417 3.44482 21.0699 4.52974 21.585 5.9821C22.0507 7.29839 21.8721 8.74887 21.1184 9.90597C22.307 10.9821 23 12.355 23 13.8052C23 15.5714 21.9927 17.1306 20.4517 18.2307C18.9096 19.3317 16.8031 20 14.5 20C12.1964 20 10.0899 19.3319 8.54788 18.2311C7.00696 17.1311 6 15.5719 6 13.8052C6 12.3553 6.69274 10.9827 7.88089 9.90665C7.123 8.75009 6.93948 7.29699 7.40518 5.97737C7.91909 4.5211 9.15056 3.43387 10.6601 3.10336C12.0273 2.80403 13.4462 3.16465 14.5009 4.05786Z" fill="#FAFAFA"/>
<path d="M28.512 9.71974C28.5083 8.58252 28.077 7.48779 27.3031 6.6543C26.5291 5.8196 25.4696 5.3081 24.336 5.2206C23.7711 3.15998 22.3082 1.46388 20.3519 0.602309C18.397 -0.259111 16.1579 -0.193514 14.2562 0.779697C12.3548 -0.19351 10.1157 -0.259108 8.15925 0.602309C6.20431 1.46373 4.74156 3.15988 4.17516 5.2206C2.83866 5.32023 1.61638 6.00915 0.837724 7.10021C0.0601287 8.19127 -0.19259 9.5715 0.148837 10.8678C0.490263 12.1642 1.39056 13.2407 2.60433 13.8081C2.59461 13.9733 2.59218 14.1252 2.59218 14.2552C2.59218 19.3422 7.71591 23.3276 14.2561 23.3276C20.7963 23.3276 25.92 19.3425 25.92 14.2552C25.92 14.124 25.9176 13.9697 25.9079 13.8069C26.6867 13.446 27.3452 12.8689 27.8069 12.1435C28.2686 11.4194 28.5128 10.5786 28.5116 9.71961L28.512 9.71974ZM1.29613 9.71974C1.29856 8.17183 2.39326 6.84142 3.91078 6.54C3.91078 6.54486 3.91564 6.54972 3.91564 6.55336C3.90228 6.74169 3.88891 6.92878 3.88891 7.12807C3.88648 7.93238 4.02499 8.73063 4.29836 9.48636C3.61311 10.3514 3.11617 11.3489 2.84037 12.4169C2.83551 12.4327 2.82579 12.451 2.82093 12.4667V12.4655C1.8708 11.8775 1.29367 10.8374 1.29613 9.71965L1.29613 9.71974ZM14.2565 22.0313C8.44286 22.0313 3.88895 18.6161 3.88895 14.2553C3.8853 13.9953 3.90474 13.7365 3.94848 13.4801C4.12344 12.1971 4.67504 10.9955 5.53285 10.027C5.69566 9.83866 5.73575 9.5738 5.63612 9.34537C5.3348 8.64554 5.18051 7.88981 5.18415 7.12801C5.18172 6.73922 5.2206 6.35163 5.30201 5.97257C5.67258 4.13184 6.90824 2.58288 8.61892 1.81119C10.3308 1.03966 12.3088 1.13929 13.9346 2.07849C14.1338 2.1927 14.3793 2.1927 14.5785 2.07849C16.2054 1.1381 18.1859 1.03968 19.8979 1.81362C21.611 2.58758 22.8442 4.13913 23.2135 5.98216C23.2937 6.35879 23.3314 6.74274 23.329 7.1279C23.3326 7.88969 23.1783 8.64542 22.877 9.34526C22.7774 9.57368 22.8175 9.83853 22.9803 10.0269C23.8453 11.0061 24.3982 12.2211 24.5707 13.5164C24.6108 13.7606 24.629 14.0085 24.6242 14.2551C24.6242 18.6159 20.0703 22.0311 14.2566 22.0311L14.2565 22.0313ZM25.6921 12.4656C25.6885 12.4486 25.6763 12.4304 25.6714 12.4121V12.4133C25.3944 11.3466 24.8987 10.3503 24.2147 9.48641C24.488 8.73068 24.6265 7.93243 24.6241 7.12812C24.6241 6.94344 24.5852 6.79036 24.5731 6.61661C24.584 6.5911 24.6035 6.56558 24.6022 6.54007C25.9071 6.79643 26.9229 7.82432 27.1635 9.13285C27.404 10.4402 26.8208 11.7621 25.6921 12.4656L25.6921 12.4656Z" fill="#FAFAFA"/>
<path d="M13.7705 11.9125C13.7705 12.7764 12.4741 12.7764 12.4741 11.9125C12.4741 11.0487 13.7705 11.0487 13.7705 11.9125Z" fill="#FAFAFA"/>
<path d="M16.0386 11.9125C16.0386 12.7764 14.7422 12.7764 14.7422 11.9125C14.7422 11.0487 16.0386 11.0487 16.0386 11.9125Z" fill="#FAFAFA"/>
</svg>
