<svg width="19" height="24" viewBox="0 0 19 24" fill="none" xmlns="http://www.w3.org/2000/svg">
<path d="M18.0131 6.1263H14.8788V5.42765C14.8788 2.50937 12.5221 0.163818 9.63865 0.163818C6.75516 0.163818 4.39854 2.50919 4.39854 5.42765V6.1263H1.2642C0.838134 6.1263 0.511963 6.45078 0.511963 6.87464V21.2433C0.511963 22.3161 1.38958 23.1638 2.44251 23.1638H16.785C17.8634 23.1638 18.7155 22.2908 18.7155 21.2433V6.84944C18.7655 6.4509 18.4148 6.12645 18.0132 6.12645L18.0131 6.1263ZM5.90277 5.40233C5.90277 3.33172 7.58257 1.63518 9.6384 1.63518C11.6942 1.63518 13.374 3.33162 13.374 5.40233V6.10098H5.90252L5.90277 5.40233ZM16.8103 21.667H2.46679C2.21604 21.667 2.01524 21.4673 2.01524 21.2178L2.01622 7.59751H4.39832V11.7134C4.39832 12.1372 4.72449 12.4617 5.15056 12.4617C5.57662 12.4617 5.9028 12.1372 5.9028 11.7134V7.59751H13.3753V11.7134C13.3753 12.1372 13.7015 12.4617 14.1275 12.4617C14.5536 12.4617 14.8798 12.1372 14.8798 11.7134L14.8788 7.59751H17.2609V21.2178C17.2609 21.4673 17.0611 21.667 16.8103 21.667H16.8103Z" fill="#FAFAFA"/>
</svg>
