<svg width="22" height="23" viewBox="0 0 22 23" fill="none" xmlns="http://www.w3.org/2000/svg">
<path d="M21.7351 21.107L16.3456 15.7215C17.6956 14.0739 18.4355 12.0121 18.4355 9.88297C18.4355 4.79815 14.2999 0.663818 9.21914 0.663818C7.9771 0.663818 6.77105 0.906904 5.63422 1.38856C4.53618 1.85491 3.55064 2.51843 2.70458 3.36473C1.85852 4.21102 1.19252 5.19685 0.726316 6.29527C0.244809 7.43146 0 8.63785 0 9.88128C0 14.9661 4.1356 19.1004 9.21633 19.1004C11.3476 19.1004 13.4061 18.3604 15.053 17.0099L20.437 22.3955C20.6098 22.5684 20.8393 22.6638 21.0832 22.6638C21.328 22.6638 21.5584 22.5693 21.7294 22.3955C22.0894 22.0426 22.0894 21.4637 21.7339 21.1081L21.7351 21.107ZM16.6113 9.8802C16.6113 13.9585 13.2945 17.2735 9.22022 17.2735C5.14315 17.2735 1.82919 13.9558 1.82919 9.8802C1.82919 5.80349 5.14591 2.4869 9.22022 2.4869C13.2957 2.4869 16.6113 5.80465 16.6113 9.8802Z" fill="#FAFAFA"/>
</svg>
